<svg xmlns="http://www.w3.org/2000/svg" width="1200" height="700" viewBox="0 0 1200 700">
<rect width="1200" height="700" fill="#fff"/><rect width="1200" height="48" fill="#fafafa" stroke="#e5e5e5"/>
<text x="22" y="31" font-family="Arial,sans-serif" font-size="20" font-weight="700" fill="#252525">Harbor Viewer</text>
<text x="165" y="30" font-family="Arial,sans-serif" font-size="13" fill="#777">Jobs / 2025-12-19_12-09-24 / coreutils-old-version</text>
<text x="22" y="82" font-family="Arial,sans-serif" font-size="23" font-weight="700" fill="#222">coreutils-old-version</text>
<text x="22" y="108" font-family="Arial,sans-serif" font-size="13" fill="#666">Agent: terminus-2 v2.0.0 · Model: openrouter/openai/gpt-5.2-chat · Steps: 8</text>
<g font-family="Arial,sans-serif"><rect x="22" y="130" width="270" height="78" rx="10" fill="#fcfcfc" stroke="#e4e4e4"/><text x="39" y="165" font-size="22" font-weight="700">$0.0519</text><text x="39" y="191" font-size="12" fill="#777">Cost</text>
<rect x="309" y="130" width="270" height="78" rx="10" fill="#fcfcfc" stroke="#e4e4e4"/><text x="326" y="165" font-size="22" font-weight="700">32,393</text><text x="326" y="191" font-size="12" fill="#777">Prompt</text>
<rect x="596" y="130" width="270" height="78" rx="10" fill="#fcfcfc" stroke="#e4e4e4"/><text x="613" y="165" font-size="22" font-weight="700">2,193</text><text x="613" y="191" font-size="12" fill="#777">Completion</text>
<rect x="883" y="130" width="270" height="78" rx="10" fill="#fcfcfc" stroke="#e4e4e4"/><text x="900" y="165" font-size="22" font-weight="700" fill="#209d73">22,528</text><text x="900" y="191" font-size="12" fill="#777">Cached</text></g>
<line x1="22" y1="240" x2="1178" y2="240" stroke="#ddd"/><text x="22" y="269" font-family="Arial,sans-serif" font-size="14" font-weight="700">Trajectory</text><text x="122" y="269" font-family="Arial,sans-serif" font-size="14" fill="#777">Configuration</text><text x="235" y="269" font-family="Arial,sans-serif" font-size="14" fill="#777">Verifier</text>
<rect x="22" y="295" width="1156" height="48" rx="8" fill="#eef7ff" stroke="#d8e8f5"/><text x="38" y="324" font-family="Arial,sans-serif" font-size="13" font-weight="700">Step 1</text><text x="110" y="324" font-family="Arial,sans-serif" font-size="13" fill="#555">User: You are an AI assistant tasked with solving command-line tasks in a Linux environment.</text>
<rect x="22" y="354" width="1156" height="55" rx="8" fill="#eefbf4" stroke="#d3ebdd"/><text x="38" y="385" font-family="Arial,sans-serif" font-size="13" font-weight="700">Step 2</text><text x="110" y="385" font-family="Arial,sans-serif" font-size="13" fill="#555">Analysis: We are at an initial shell prompt in /workdir with no actions taken yet...</text>
<rect x="22" y="423" width="1156" height="115" rx="8" fill="#fbfbfb" stroke="#e5e5e5"/><text x="39" y="451" font-family="Arial,sans-serif" font-size="13" fill="#333">Plan: inspect the archive, configure the build, compile, install into /workdir/result,</text><text x="39" y="476" font-family="Arial,sans-serif" font-size="13" fill="#333">then verify the expected binaries and symlinks. The agent can inspect tool calls and</text><text x="39" y="501" font-family="Arial,sans-serif" font-size="13" fill="#333">observations step-by-step in the trajectory viewer.</text>
<text x="22" y="566" font-family="Arial,sans-serif" font-size="13" font-weight="700" fill="#b16b2c">bash_command</text><rect x="22" y="580" width="1156" height="78" rx="7" fill="#111c2d"/><text x="39" y="610" font-family="monospace" font-size="14" fill="#e8edf3">$ cd /workdir &amp;&amp; tar xf coreutils-5.0.tar.gz &amp;&amp; cd coreutils-5.0</text><text x="39" y="635" font-family="monospace" font-size="14" fill="#e8edf3">$ ./configure --prefix=/workdir/result &amp;&amp; make -j2</text>
<text x="22" y="685" font-family="Arial,sans-serif" font-size="11" fill="#999">Reference recreation of the public Harbor Viewer screenshot. Same viewer used to inspect Harbor runs; this image is not a Terminal-Bench-Science-specific trajectory.</text>
</svg>